# xmcd
#
# Track frame offsets: 
#        150
#        20972
#        39670
#        56540
#        81002
#        96093
#        109871
#        132215
#        150531
#        169705
#        186336
#
# Disc length: 2657 seconds
#
# Revision: 0
# Processed by: cddbd v1.5.2PL0 Copyright (c) Steve Scherf et al.
# Submitted via: ExactAudioCopy v0.95b4
#
DISCID=8d0a5f0b
DTITLE=Lady Antebellum - Need You Now
DYEAR=1900
DGENRE=Country
TTITLE0=Need You Now
TTITLE1=Our Kind of Love
TTITLE2=American Honey
TTITLE3=Hello World
TTITLE4=Perfect Day
TTITLE5=Love This Pain
TTITLE6=When You Got A Good Thing
TTITLE7=Stars Tonight
TTITLE8=If I Knew Then
TTITLE9=Something About A Woman
TTITLE10=Ready To Love Again
EXTD=
EXTT0=
EXTT1=
EXTT2=
EXTT3=
EXTT4=
EXTT5=
EXTT6=
EXTT7=
EXTT8=
EXTT9=
EXTT10=
PLAYORDER=
